<svg width="1920" height="1080" viewBox="0 0 1920 1080" fill="none" xmlns="http://www.w3.org/2000/svg">
<path fill-rule="evenodd" clip-rule="evenodd" d="M-15 743.024L66.1452 794.048C145.73 846.452 308.02 948.5 468.75 974.702C629.48 999.524 791.77 948.5 952.5 889.202C1113.23 828.524 1275.52 760.952 1436.25 726.476C1596.98 692 1759.27 692 1838.85 692H1920V1205H1838.85C1759.27 1205 1596.98 1205 1436.25 1205C1275.52 1205 1113.23 1205 952.5 1205C791.77 1205 629.48 1205 468.75 1205C308.02 1205 145.73 1205 66.1452 1205H-15V743.024Z" fill="#B5C99A"/>
<path fill-rule="evenodd" clip-rule="evenodd" d="M-359 -1H-263.083C-167.167 -1 24.6667 -1 216.5 103.196C408.333 207.393 600.167 415.785 792 450.517C983.833 485.249 1175.67 346.321 1367.5 276.857C1559.33 207.393 1751.17 207.393 1847.08 207.393H1943V-1H1847.08C1751.17 -1 1559.33 -1 1367.5 -1C1175.67 -1 983.833 -1 792 -1C600.167 -1 408.333 -1 216.5 -1C24.6667 -1 -167.167 -1 -263.083 -1H-359Z" fill="#B5C99A"/>
</svg>
