<svg width="100" height="94" viewBox="0 0 100 94" fill="none" xmlns="http://www.w3.org/2000/svg">
<path d="M100 44C100 68.1625 77.6125 87.75 50 87.75C45.0475 87.761 40.1153 87.118 35.3312 85.8375C31.6812 87.6875 23.3 91.2375 9.2 93.55C7.95 93.75 7 92.45 7.49375 91.2875C9.70625 86.0625 11.7062 79.1 12.3062 72.75C4.65 65.0625 0 55 0 44C0 19.8375 22.3875 0.25 50 0.25C77.6125 0.25 100 19.8375 100 44ZM31.25 44C31.25 42.3424 30.5915 40.7527 29.4194 39.5806C28.2473 38.4085 26.6576 37.75 25 37.75C23.3424 37.75 21.7527 38.4085 20.5806 39.5806C19.4085 40.7527 18.75 42.3424 18.75 44C18.75 45.6576 19.4085 47.2473 20.5806 48.4194C21.7527 49.5915 23.3424 50.25 25 50.25C26.6576 50.25 28.2473 49.5915 29.4194 48.4194C30.5915 47.2473 31.25 45.6576 31.25 44ZM56.25 44C56.25 42.3424 55.5915 40.7527 54.4194 39.5806C53.2473 38.4085 51.6576 37.75 50 37.75C48.3424 37.75 46.7527 38.4085 45.5806 39.5806C44.4085 40.7527 43.75 42.3424 43.75 44C43.75 45.6576 44.4085 47.2473 45.5806 48.4194C46.7527 49.5915 48.3424 50.25 50 50.25C51.6576 50.25 53.2473 49.5915 54.4194 48.4194C55.5915 47.2473 56.25 45.6576 56.25 44ZM75 50.25C76.6576 50.25 78.2473 49.5915 79.4194 48.4194C80.5915 47.2473 81.25 45.6576 81.25 44C81.25 42.3424 80.5915 40.7527 79.4194 39.5806C78.2473 38.4085 76.6576 37.75 75 37.75C73.3424 37.75 71.7527 38.4085 70.5806 39.5806C69.4085 40.7527 68.75 42.3424 68.75 44C68.75 45.6576 69.4085 47.2473 70.5806 48.4194C71.7527 49.5915 73.3424 50.25 75 50.25Z" fill="#B5C99A"/>
<path d="M50 86.75H49.9978C45.1334 86.7608 40.2888 86.1292 35.5898 84.8715L35.2203 84.7726L34.8792 84.9455C31.3212 86.7489 23.0387 90.2667 9.04078 92.5628C8.63022 92.6274 8.20282 92.176 8.41417 91.6784L8.4146 91.6774C10.6595 86.376 12.6905 79.3135 13.3018 72.8441L13.346 72.3769L13.0148 72.0443C5.52413 64.5231 1 54.7071 1 44C1 20.5111 22.8102 1.25 50 1.25C77.1898 1.25 99 20.5111 99 44C99 67.4889 77.1898 86.75 50 86.75ZM32.25 44C32.25 42.0772 31.4862 40.2331 30.1265 38.8735C28.7669 37.5138 26.9228 36.75 25 36.75C23.0772 36.75 21.2331 37.5138 19.8735 38.8735C18.5138 40.2331 17.75 42.0772 17.75 44C17.75 45.9228 18.5138 47.7669 19.8735 49.1265C21.2331 50.4862 23.0772 51.25 25 51.25C26.9228 51.25 28.7669 50.4862 30.1265 49.1265C31.4862 47.7669 32.25 45.9228 32.25 44ZM57.25 44C57.25 42.0772 56.4862 40.2331 55.1265 38.8735C53.7669 37.5138 51.9228 36.75 50 36.75C48.0772 36.75 46.2331 37.5138 44.8735 38.8735C43.5138 40.2331 42.75 42.0772 42.75 44C42.75 45.9228 43.5138 47.7669 44.8735 49.1265C46.2331 50.4862 48.0772 51.25 50 51.25C51.9228 51.25 53.7669 50.4862 55.1265 49.1265C56.4862 47.7669 57.25 45.9228 57.25 44ZM75 51.25C76.9228 51.25 78.7669 50.4862 80.1265 49.1265C81.4862 47.7669 82.25 45.9228 82.25 44C82.25 42.0772 81.4862 40.2331 80.1265 38.8735C78.7669 37.5138 76.9228 36.75 75 36.75C73.0772 36.75 71.2331 37.5138 69.8735 38.8735C68.5138 40.2331 67.75 42.0772 67.75 44C67.75 45.9228 68.5138 47.7669 69.8735 49.1265C71.2331 50.4862 73.0772 51.25 75 51.25Z" stroke="black" stroke-opacity="0.5" stroke-width="2"/>
</svg>
