<svg width="108" height="143" viewBox="0 0 108 143" fill="none" xmlns="http://www.w3.org/2000/svg">
<path d="M65.7712 0H18.465C13.7242 0 9.17764 1.88325 5.82543 5.23547C2.47322 8.58768 0.589966 13.1343 0.589966 17.875V125.125C0.589966 129.866 2.47322 134.412 5.82543 137.765C9.17764 141.117 13.7242 143 18.465 143H89.965C94.7057 143 99.2523 141.117 102.604 137.765C105.957 134.412 107.84 129.866 107.84 125.125V42.0688C107.839 39.6986 106.897 37.4257 105.221 35.75L72.09 2.61869C70.4142 0.942465 68.1413 0.000506197 65.7712 0ZM67.6212 31.2812V13.4062L94.4337 40.2188H76.5587C74.1883 40.2188 71.9151 39.2771 70.239 37.601C68.5628 35.9249 67.6212 33.6516 67.6212 31.2812ZM81.0275 71.5C81.0275 78.6111 78.2026 85.431 73.1743 90.4593C68.146 95.4876 61.3261 98.3125 54.215 98.3125C47.1038 98.3125 40.284 95.4876 35.2557 90.4593C30.2273 85.431 27.4025 78.6111 27.4025 71.5C27.4025 64.3889 30.2273 57.569 35.2557 52.5407C40.284 47.5124 47.1038 44.6875 54.215 44.6875C61.3261 44.6875 68.146 47.5124 73.1743 52.5407C78.2026 57.569 81.0275 64.3889 81.0275 71.5ZM98.9025 122.935V125.125C98.9025 127.495 97.9608 129.769 96.2847 131.445C94.6086 133.121 92.3353 134.062 89.965 134.062H18.465C16.0946 134.062 13.8213 133.121 12.1452 131.445C10.4691 129.769 9.52747 127.495 9.52747 125.125V122.935C9.52747 122.935 18.465 107.25 54.215 107.25C89.965 107.25 98.9025 122.935 98.9025 122.935Z" fill="#B5C99A"/>
<path d="M104.514 36.4571L104.514 36.4572C106.003 37.9454 106.839 39.9639 106.84 42.0688C106.84 42.0689 106.84 42.069 106.84 42.069V125.125C106.84 129.601 105.062 133.893 101.897 137.057C98.7327 140.222 94.4405 142 89.965 142H18.465C13.9894 142 9.69722 140.222 6.53254 137.057C3.36786 133.893 1.58997 129.601 1.58997 125.125V17.875C1.58997 13.3995 3.36786 9.10725 6.53254 5.94257C9.69721 2.7779 13.9894 1 18.465 1H65.7709C65.771 1 65.7711 1 65.7712 1C67.8761 1.00051 69.8946 1.83706 71.3828 3.32569L71.3829 3.32579L104.514 36.4571ZM68.3283 12.6991L66.6212 10.992V13.4062V31.2812C66.6212 33.9168 67.6682 36.4445 69.5318 38.3081C71.3955 40.1718 73.9231 41.2188 76.5587 41.2188H94.4337H96.8479L95.1408 39.5116L68.3283 12.6991ZM99.9025 122.67L99.7713 122.44L98.9025 122.935C99.7713 122.44 99.7709 122.439 99.7704 122.439L99.7692 122.437L99.7663 122.432L99.7579 122.417C99.7512 122.406 99.7421 122.39 99.7307 122.372C99.7079 122.334 99.6757 122.282 99.6334 122.217C99.5489 122.086 99.4243 121.901 99.2553 121.67C98.9172 121.209 98.4014 120.563 97.6725 119.796C96.2141 118.26 93.9063 116.24 90.4699 114.23C83.5917 110.206 72.2403 106.25 54.215 106.25C36.1897 106.25 24.8382 110.206 17.96 114.23C14.5237 116.24 12.2158 118.26 10.7574 119.796C10.0286 120.563 9.51272 121.209 9.17464 121.67C9.00561 121.901 8.88103 122.086 8.7965 122.217C8.75424 122.282 8.72198 122.334 8.69919 122.372C8.69467 122.379 8.69052 122.386 8.68674 122.392C8.68099 122.402 8.67608 122.41 8.67202 122.417L8.66362 122.432L8.6607 122.437L8.65955 122.439C8.65906 122.439 8.65861 122.44 9.52747 122.935L8.65861 122.44L8.52747 122.67V122.935V125.125C8.52747 127.761 9.57445 130.288 11.4381 132.152C13.3017 134.016 15.8294 135.062 18.465 135.062H89.965C92.6006 135.062 95.1282 134.016 96.9918 132.152C98.8555 130.288 99.9025 127.761 99.9025 125.125V122.935V122.67ZM73.8814 91.1664C79.0972 85.9506 82.0275 78.8763 82.0275 71.5C82.0275 64.1237 79.0972 57.0494 73.8814 51.8336C68.6655 46.6177 61.5913 43.6875 54.215 43.6875C46.8386 43.6875 39.7644 46.6177 34.5486 51.8336C29.3327 57.0494 26.4025 64.1237 26.4025 71.5C26.4025 78.8763 29.3327 85.9506 34.5486 91.1664C39.7644 96.3823 46.8386 99.3125 54.215 99.3125C61.5913 99.3125 68.6655 96.3823 73.8814 91.1664Z" stroke="black" stroke-opacity="0.5" stroke-width="2"/>
</svg>
