<svg width="100" height="98" viewBox="0 0 100 98" fill="none" xmlns="http://www.w3.org/2000/svg">
<path d="M50 0C22.375 0 0 22.375 0 50C0 72.125 14.3125 90.8125 34.1875 97.4375C36.6875 97.875 37.625 96.375 37.625 95.0625C37.625 93.875 37.5625 89.9375 37.5625 85.75C25 88.0625 21.75 82.6875 20.75 79.875C20.1875 78.4375 17.75 74 15.625 72.8125C13.875 71.875 11.375 69.5625 15.5625 69.5C19.5 69.4375 22.3125 73.125 23.25 74.625C27.75 82.1875 34.9375 80.0625 37.8125 78.75C38.25 75.5 39.5625 73.3125 41 72.0625C29.875 70.8125 18.25 66.5 18.25 47.375C18.25 41.9375 20.1875 37.4375 23.375 33.9375C22.875 32.6875 21.125 27.5625 23.875 20.6875C23.875 20.6875 28.0625 19.375 37.625 25.8125C41.625 24.6875 45.875 24.125 50.125 24.125C54.375 24.125 58.625 24.6875 62.625 25.8125C72.1875 19.3125 76.375 20.6875 76.375 20.6875C79.125 27.5625 77.375 32.6875 76.875 33.9375C80.0625 37.4375 82 41.875 82 47.375C82 66.5625 70.3125 70.8125 59.1875 72.0625C61 73.625 62.5625 76.625 62.5625 81.3125C62.5625 88 62.5 93.375 62.5 95.0625C62.5 96.375 63.4375 97.9375 65.9375 97.4375C75.865 94.0891 84.4917 87.7104 90.6025 79.2002C96.7133 70.6899 100 60.4769 100 50C100 22.375 77.625 0 50 0Z" fill="#B5C99A"/>
<path d="M36.5641 86.9329C30.7992 87.8186 26.935 87.0667 24.3312 85.6066C21.5517 84.048 20.3652 81.7706 19.8134 80.2259C19.5593 79.5822 18.8496 78.1859 17.9379 76.7994C17.4823 76.1066 16.9896 75.4369 16.4945 74.8778C15.9933 74.3118 15.5321 73.9079 15.144 73.6893C14.6524 73.4251 14.1132 73.0684 13.6438 72.673C13.1941 72.2942 12.7107 71.7991 12.4572 71.2427C12.3254 70.9533 12.2222 70.5738 12.2957 70.1554C12.3739 69.71 12.6284 69.3552 12.9677 69.1061C13.5657 68.6669 14.4752 68.5162 15.5466 68.5001L36.5641 86.9329ZM36.5641 86.9329C36.5684 88.6054 36.5811 90.197 36.5938 91.5407C36.5986 92.051 36.6034 92.5244 36.6077 92.9524C36.6175 93.9196 36.625 94.6553 36.625 95.0625C36.625 95.4992 36.468 95.9032 36.1807 96.1577C35.9232 96.3857 35.4153 96.6218 34.4302 96.4643C14.9888 89.9495 1 71.6537 1 50C1 22.9273 22.9273 1 50 1C77.0727 1 99 22.9273 99 50C99.0001 60.2677 95.7789 70.2766 89.7902 78.6169C83.8145 86.9391 75.3837 93.1813 65.6812 96.4685C64.7021 96.6511 64.2034 96.4143 63.9502 96.1864C63.6601 95.9253 63.5 95.5038 63.5 95.0625C63.5 94.5018 63.5069 93.5313 63.5162 92.2346C63.5208 91.5899 63.526 90.8647 63.5312 90.069C63.5469 87.6773 63.5625 84.6593 63.5625 81.3125C63.5625 77.5515 62.5989 74.731 61.2113 72.8107C66.2428 72.0776 71.3779 70.592 75.4083 67.2115C80.0002 63.3599 83 57.1876 83 47.375C83 41.8525 81.1266 37.3266 78.02 33.722C78.6979 31.7321 79.8716 26.7365 77.3035 20.3161L77.1302 19.8829L76.687 19.7374L76.375 20.6875C76.687 19.7374 76.686 19.7371 76.685 19.7368L76.6829 19.7361L76.6785 19.7347L76.6684 19.7315L76.6435 19.724C76.6247 19.7185 76.6018 19.7121 76.5746 19.7051C76.5202 19.6911 76.4488 19.6747 76.3602 19.6581C76.1829 19.625 75.9374 19.5914 75.6217 19.5755C74.9896 19.5436 74.0816 19.5827 72.8813 19.8337C70.5461 20.3218 67.1131 21.6097 62.4474 24.7263C58.4867 23.6577 54.3037 23.125 50.125 23.125C45.9454 23.125 41.7615 23.658 37.8 24.727C33.1348 21.6398 29.7037 20.3534 27.372 19.8578C26.1736 19.6031 25.2675 19.5577 24.6373 19.5839C24.3225 19.5969 24.0778 19.6277 23.9012 19.6587C23.8129 19.6741 23.7418 19.6896 23.6876 19.7028C23.6606 19.7094 23.6377 19.7154 23.6191 19.7206L23.5944 19.7277L23.5843 19.7307L23.5799 19.732L23.5779 19.7327C23.5769 19.733 23.5759 19.7333 23.875 20.6875L23.5759 19.7333L23.1229 19.8753L22.9465 20.3161C20.3783 26.7367 21.5522 31.7325 22.2301 33.7222C19.1224 37.3326 17.25 41.9139 17.25 47.375C17.25 57.1557 20.2336 63.3269 24.8083 67.1862C28.8264 70.576 33.9507 72.0752 38.9833 72.8111C38.0361 74.1262 37.2781 75.8695 36.9072 78.0525L36.5641 86.9329Z" stroke="black" stroke-opacity="0.5" stroke-width="2"/>
</svg>
