<svg width="87" height="79" viewBox="0 0 87 79" fill="none" xmlns="http://www.w3.org/2000/svg">
<path d="M51.8592 0.490723C50.3914 0.490723 48.9836 1.10433 47.9457 2.19656C46.9078 3.2888 46.3247 4.77018 46.3247 6.31483V8.2562H33.4107C31.9428 8.2562 30.5351 8.86981 29.4971 9.96204C28.4592 11.0543 27.8761 12.5357 27.8761 14.0803V27.468L36.8953 31.7383L54.9339 41.1554L53.294 50.9663H81.3769C82.8447 50.9663 84.2525 50.3527 85.2904 49.2605C86.3283 48.1682 86.9114 46.6869 86.9114 45.1422V14.0803C86.9114 12.5357 86.3283 11.0543 85.2904 9.96204C84.2525 8.86981 82.8447 8.2562 81.3769 8.2562H68.4629V6.31483C68.4629 4.77018 67.8798 3.2888 66.8419 2.19656C65.8039 1.10433 64.3962 0.490723 62.9283 0.490723H51.8592ZM51.8592 4.37346H62.9283C63.4176 4.37346 63.8869 4.578 64.2328 4.94207C64.5788 5.30615 64.7732 5.79995 64.7732 6.31483V8.2562H50.0144V6.31483C50.0144 5.79995 50.2087 5.30615 50.5547 4.94207C50.9007 4.578 51.3699 4.37346 51.8592 4.37346ZM58.818 31.2187L83.2217 24.3734V45.1422C83.2217 45.6571 83.0274 46.1509 82.6814 46.515C82.3354 46.879 81.8662 47.0836 81.3769 47.0836H54.114L53.294 44.5798L57.8697 41.1554L31.5657 27.468L31.5658 24.3696L55.9695 31.2187C56.9028 31.4802 57.8848 31.4802 58.818 31.2187ZM33.4107 12.1389H81.3769C81.8662 12.1389 82.3354 12.3435 82.6814 12.7076C83.0274 13.0716 83.2217 13.5654 83.2217 14.0803V20.3548L57.8697 27.468C57.5579 27.5556 57.2297 27.5556 56.9178 27.468L31.5658 20.3548V14.0803C31.5658 13.5654 31.7602 13.0716 32.1062 12.7076C32.4521 12.3435 32.9214 12.1389 33.4107 12.1389Z" fill="#606C38"/>
<path d="M30.2946 26.5637C30.0507 26.4485 29.785 26.3888 29.516 26.3888C29.2471 26.3888 28.9813 26.4485 28.7375 26.5637L1.06469 39.6728C0.73882 39.8272 0.464512 40.0749 0.275498 40.3854C0.0864847 40.696 -0.00899299 41.0559 0.000807517 41.4208C0.010608 41.7857 0.125259 42.1397 0.330661 42.4394C0.536063 42.739 0.823259 42.9712 1.15693 43.1073L28.8297 54.3436C29.2702 54.5228 29.7618 54.5228 30.2023 54.3436L51.6543 45.6392V67.5875C50.6757 67.5875 49.7372 67.9821 49.0453 68.6845C48.3533 69.3869 47.9646 70.3396 47.9646 71.3329V78.8238H59.0337V71.3329C59.0337 70.3396 58.645 69.3869 57.953 68.6845C57.2611 67.9821 56.3226 67.5875 55.344 67.5875V44.1373L57.8751 43.1073C58.2088 42.9712 58.496 42.739 58.7014 42.4394C58.9068 42.1397 59.0215 41.7857 59.0312 41.4208C59.041 41.0559 58.9456 40.696 58.7566 40.3854C58.5675 40.0749 58.2932 39.8272 57.9674 39.6728L30.2946 26.5637ZM29.516 50.5832L6.48487 41.2384L29.516 30.3279L52.5472 41.2384L29.516 50.5832Z" fill="#606C38"/>
<path d="M15.4066 52.7256C15.169 52.6348 14.9156 52.5947 14.662 52.6078C14.4085 52.621 14.1604 52.6871 13.9332 52.8021C13.706 52.917 13.5046 53.0783 13.3417 53.2759C13.1787 53.4735 13.0577 53.7031 12.9861 53.9504L11.1413 60.3176C11.0121 60.7646 11.0516 61.2444 11.2522 61.6634C11.4528 62.0824 11.8 62.4105 12.2261 62.5836L28.8297 69.3254C29.2702 69.5046 29.7618 69.5046 30.2023 69.3254L46.806 62.5836C47.2321 62.4105 47.5793 62.0824 47.7799 61.6634C47.9805 61.2444 48.02 60.7646 47.8908 60.3176L46.0459 53.9504C45.9744 53.7031 45.8533 53.4735 45.6904 53.2759C45.5274 53.0783 45.3261 52.917 45.0989 52.8021C44.8717 52.6871 44.6236 52.621 44.37 52.6078C44.1165 52.5947 43.863 52.6348 43.6255 52.7256L29.516 58.0965L15.4066 52.7256ZM15.1557 59.7408L15.9674 56.9392L28.8666 61.8495C29.2853 62.0093 29.7468 62.0093 30.1654 61.8495L43.0646 56.9392L43.8764 59.7408L29.516 65.5649L15.1557 59.7408Z" fill="#606C38"/>
</svg>
