<svg width="100" height="100" viewBox="0 0 100 100" fill="none" xmlns="http://www.w3.org/2000/svg">
<path d="M0 7.1625C0 3.20625 3.2875 0 7.34375 0H92.6562C96.7125 0 100 3.20625 100 7.1625V92.8375C100 96.7938 96.7125 100 92.6562 100H7.34375C3.2875 100 0 96.7938 0 92.8375V7.1625ZM30.8937 83.7125V38.5563H15.8875V83.7125H30.8937ZM23.3938 32.3875C28.625 32.3875 31.8812 28.925 31.8812 24.5875C31.7875 20.1563 28.6313 16.7875 23.4938 16.7875C18.3563 16.7875 15 20.1625 15 24.5875C15 28.925 18.2563 32.3875 23.2937 32.3875H23.3938ZM54.0688 83.7125V58.4938C54.0688 57.1438 54.1687 55.7937 54.5687 54.8312C55.65 52.1375 58.1188 49.3437 62.2688 49.3437C67.7 49.3437 69.8687 53.4813 69.8687 59.5563V83.7125H84.875V57.8125C84.875 43.9375 77.475 37.4875 67.6 37.4875C59.6375 37.4875 56.0688 41.8625 54.0688 44.9437V45.1H53.9688L54.0688 44.9437V38.5563H39.0687C39.2562 42.7938 39.0687 83.7125 39.0687 83.7125H54.0688Z" fill="#B5C99A"/>
<path d="M30.8937 84.7125H31.8937V83.7125V38.5563V37.5563H30.8937H15.8875H14.8875V38.5563V83.7125V84.7125H15.8875H30.8937ZM32.8812 24.5875V24.5769L32.881 24.5663C32.8292 22.1144 31.9253 19.9046 30.2742 18.3071C28.6213 16.7078 26.2873 15.7875 23.4937 15.7875C20.7025 15.7875 18.3235 16.7076 16.6342 18.3006C14.9431 19.8954 14 22.113 14 24.5875C14 29.5009 17.7279 33.3875 23.2938 33.3875H23.3937C26.2352 33.3875 28.6153 32.4432 30.2914 30.8358C31.9669 29.2289 32.8812 27.0132 32.8812 24.5875ZM55.0687 84.7125V83.7125V58.4938C55.0687 57.1492 55.1754 55.9773 55.4922 55.215L55.4922 55.215L55.4968 55.2038C56.4826 52.7477 58.6607 50.3438 62.2688 50.3438C64.6897 50.3438 66.2635 51.2431 67.2788 52.7346C68.3378 54.2902 68.8688 56.6093 68.8688 59.5563V83.7125V84.7125H69.8688H84.875H85.875V83.7125V57.8125C85.875 50.7031 83.9775 45.3517 80.676 41.7692C77.367 38.1786 72.7602 36.4875 67.6 36.4875C63.4202 36.4875 60.338 37.6405 58.0295 39.2378C56.84 40.0607 55.8703 40.9918 55.0687 41.9187V38.5563V37.5563H54.0687H39.0687H38.0235L38.0697 38.6005C38.1621 40.6888 38.1625 51.9415 38.1391 62.7213C38.1273 68.1003 38.1098 73.347 38.0951 77.249C38.0878 79.2 38.0812 80.8148 38.0765 81.9418L38.0708 83.2475L38.0693 83.5905L38.0689 83.6783L38.0688 83.7005L38.0688 83.7061L38.0688 83.7075C38.0688 83.7078 38.0688 83.7079 39.0687 83.7125L38.0688 83.7079L38.0642 84.7125H39.0687H54.0687H55.0687ZM1 7.1625C1 3.78196 3.81607 1 7.34375 1H92.6562C96.1839 1 99 3.78196 99 7.1625V92.8375C99 96.218 96.1839 99 92.6562 99H7.34375C3.81607 99 1 96.218 1 92.8375V7.1625Z" stroke="black" stroke-opacity="0.5" stroke-width="2"/>
</svg>
