<svg width="87" height="65" viewBox="0 0 87 65" fill="none" xmlns="http://www.w3.org/2000/svg">
<path d="M5.43194 9.84471C10.2391 8.03329 17.1321 6.07988 23.8349 5.47281C31.0592 4.81678 37.1863 5.78124 40.7387 9.15441V56.8684C35.66 54.2736 29.2233 53.9162 23.2863 54.4548C16.8768 55.0423 10.4129 56.7117 5.43194 58.4252V9.84471ZM46.1705 9.15441C49.7229 5.78124 55.85 4.81678 63.0743 5.47281C69.7772 6.07988 76.6702 8.03329 81.4773 9.84471V58.4252C76.4909 56.7117 70.0325 55.0374 63.623 54.4597C57.6805 53.9162 51.2493 54.2687 46.1705 56.8684V9.15441ZM43.4546 4.72866C38.1043 0.581959 30.3477 -0.0349054 23.2863 0.601542C15.0625 1.35059 6.76273 3.89148 1.59164 6.01134C1.11717 6.20584 0.714815 6.51929 0.432608 6.91428C0.150402 7.30927 0.000266401 7.76911 0.00012207 8.23891L0.00012207 62.0921C0.000247882 62.5017 0.114392 62.9047 0.332099 63.2642C0.549806 63.6237 0.864116 63.9282 1.24624 64.1499C1.62836 64.3715 2.06608 64.5032 2.51931 64.5329C2.97253 64.5626 3.42677 64.4893 3.84041 64.3197C8.63127 62.3614 16.3499 60.0065 23.8295 59.326C31.4829 58.6308 37.8979 59.752 41.3362 63.6196C41.5907 63.9055 41.9132 64.1362 42.2798 64.2948C42.6465 64.4533 43.048 64.5357 43.4546 64.5357C43.8613 64.5357 44.2628 64.4533 44.6294 64.2948C44.9961 64.1362 45.3186 63.9055 45.573 63.6196C49.0114 59.752 55.4263 58.6308 63.0743 59.326C70.5594 60.0065 78.2834 62.3614 83.0688 64.3197C83.4825 64.4893 83.9367 64.5626 84.39 64.5329C84.8432 64.5032 85.2809 64.3715 85.663 64.1499C86.0451 63.9282 86.3595 63.6237 86.5772 63.2642C86.7949 62.9047 86.909 62.5017 86.9091 62.0921V8.23891C86.909 7.76911 86.7589 7.30927 86.4766 6.91428C86.1944 6.51929 85.7921 6.20584 85.3176 6.01134C80.1465 3.89148 71.8467 1.35059 63.623 0.601542C56.5616 -0.0398012 48.805 0.581959 43.4546 4.72866Z" fill="#606C38"/>
</svg>
