<svg width="99" height="100" viewBox="0 0 99 100" fill="none" xmlns="http://www.w3.org/2000/svg">
<path d="M97.1563 40.9875C97.7399 44.3434 98.0306 47.7437 98.025 51.15C98.025 66.3625 92.5875 79.225 83.125 87.9312H83.1375C74.8625 95.575 63.4875 100 50 100C36.7392 100 24.0215 94.7322 14.6447 85.3553C5.26784 75.9785 0 63.2608 0 50C0 36.7392 5.26784 24.0215 14.6447 14.6447C24.0215 5.26784 36.7392 -3.20664e-06 50 -3.20664e-06C62.4108 -0.138215 74.3952 4.52385 83.45 13.0125L69.175 27.2875C64.0138 22.3703 57.1277 19.677 50 19.7875C36.9563 19.7875 25.875 28.5875 21.925 40.4375C19.8343 46.6475 19.8343 53.3712 21.925 59.5812H21.9437C25.9125 71.4125 36.975 80.2125 50.0188 80.2125C56.7563 80.2125 62.5438 78.4875 67.0313 75.4375H67.0125C69.6187 73.7118 71.8479 71.4757 73.5656 68.8643C75.2833 66.2528 76.4538 63.3202 77.0063 60.2437H50V40.9937L97.1563 40.9875Z" fill="#B5C99A"/>
<path d="M70.2815 74.4375H69.9874C71.681 72.9791 73.1675 71.2892 74.4011 69.4138C76.1931 66.6894 77.4141 63.63 77.9905 60.4205L78.2018 59.2437H77.0062H51V41.9936L96.309 41.9876C96.7905 45.0169 97.03 48.0802 97.025 51.1484V51.15C97.025 66.1198 91.6789 78.7021 82.4479 87.1953L81.7725 87.8167C73.7614 94.8931 62.8904 99 50 99C37.0044 99 24.541 93.8375 15.3518 84.6482C6.16249 75.4589 1 62.9956 1 50C1 37.0044 6.16249 24.541 15.3518 15.3518C24.541 6.16248 37.0044 0.999997 50 0.999997V1.00006L50.0111 0.999935C61.8193 0.868434 73.2332 5.17455 82.0046 13.0437L69.1461 25.9022C63.8851 21.2264 57.0533 18.6799 49.9922 18.7875C36.489 18.791 25.0517 27.8968 20.9767 40.12C18.8169 46.5365 18.8171 53.4838 20.9773 59.9003L21.2065 60.5812H21.2332C25.5181 72.4422 36.7638 81.2125 50.0188 81.2125C56.9268 81.2125 62.9169 79.443 67.5934 76.2645L70.2815 74.4375Z" stroke="black" stroke-opacity="0.5" stroke-width="2"/>
</svg>
