<svg width="87" height="79" viewBox="0 0 87 79" fill="none" xmlns="http://www.w3.org/2000/svg">
<path d="M35.3077 0.490723C33.1468 0.490723 31.0743 1.44298 29.5463 3.13802C28.0182 4.83305 27.1598 7.13201 27.1598 9.52915V12.542H8.14794C5.98697 12.542 3.91451 13.4942 2.38648 15.1893C0.858441 16.8843 0 19.1832 0 21.5804L0 69.7853C0 72.1825 0.858441 74.4814 2.38648 76.1765C3.91451 77.8715 5.98697 78.8238 8.14794 78.8238H78.7634C80.9244 78.8238 82.9968 77.8715 84.5248 76.1765C86.0529 74.4814 86.9113 72.1825 86.9113 69.7853V21.5804C86.9113 19.1832 86.0529 16.8843 84.5248 15.1893C82.9968 13.4942 80.9244 12.542 78.7634 12.542H59.7515V9.52915C59.7515 7.13201 58.8931 4.83305 57.3651 3.13802C55.837 1.44298 53.7646 0.490723 51.6036 0.490723H35.3077ZM35.3077 6.51634H51.6036C52.3239 6.51634 53.0147 6.83376 53.5241 7.39877C54.0334 7.96379 54.3196 8.7301 54.3196 9.52915V12.542H32.5917V9.52915C32.5917 8.7301 32.8779 7.96379 33.3872 7.39877C33.8966 6.83376 34.5874 6.51634 35.3077 6.51634ZM45.5524 48.1775L81.4794 37.5543V69.7853C81.4794 70.5844 81.1932 71.3507 80.6839 71.9157C80.1745 72.4807 79.4837 72.7981 78.7634 72.7981H8.14794C7.42761 72.7981 6.73679 72.4807 6.22745 71.9157C5.7181 71.3507 5.43196 70.5844 5.43196 69.7853V37.5483L41.3589 48.1775C42.7328 48.5833 44.1785 48.5833 45.5524 48.1775ZM8.14794 18.5676H78.7634C79.4837 18.5676 80.1745 18.885 80.6839 19.45C81.1932 20.015 81.4794 20.7813 81.4794 21.5804V31.3178L44.1564 42.3567C43.6973 42.4927 43.214 42.4927 42.7549 42.3567L5.43196 31.3178V21.5804C5.43196 20.7813 5.7181 20.015 6.22745 19.45C6.73679 18.885 7.42761 18.5676 8.14794 18.5676Z" fill="#606C38"/>
</svg>
