
<svg xmlns="http://www.w3.org/2000/svg" viewBox="0 0 1788 384" width="596" height="128"><title>Logo_HKS_Claim-ai</title><style>
		tspan { white-space:pre }
		.shp0 { fill: #2d342f } 
		.shp1 { fill: #889699 } 
	</style><g id="Ebene 1"><g id="&lt;Group&gt;"><g id="&lt;Group&gt;"><path id="&lt;Path&gt;" class="shp0" d="M1541.04 127.47L1440.63 127.47L1440.63 27.06L1541.04 27.06L1541.04 127.47Z"></path><path id="&lt;Path&gt;" class="shp0" d="M1653.05 127.47L1552.62 127.47L1552.62 27.06L1653.05 27.06L1653.05 127.47Z"></path><path id="&lt;Path&gt;" class="shp0" d="M1541.04 240.12L1440.63 240.12L1440.63 139.7L1541.04 139.7L1541.04 240.12Z"></path><path id="&lt;Path&gt;" class="shp1" d="M1653.06 240.11L1552.66 240.11L1552.66 139.71L1653.06 139.71L1653.06 240.11Z"></path><path id="&lt;Path&gt;" class="shp0" d="M1541.04 354.05L1440.63 354.05L1440.63 253.64L1541.04 253.64L1541.04 354.05Z"></path><path id="&lt;Path&gt;" class="shp0" d="M1653.05 354.05L1552.62 354.05L1552.62 253.64L1653.05 253.64L1653.05 354.05Z"></path><path id="&lt;Path&gt;" class="shp0" d="M1765.05 127.47L1664.64 127.47L1664.64 27.06L1765.05 27.06L1765.05 127.47Z"></path><path id="&lt;Path&gt;" class="shp0" d="M1765.05 240.12L1664.64 240.12L1664.64 139.7L1765.05 139.7L1765.05 240.12Z"></path><path id="&lt;Path&gt;" class="shp0" d="M1765.05 354.05L1664.64 354.05L1664.64 253.64L1765.05 253.64L1765.05 354.05Z"></path></g><g id="&lt;Group&gt;"><path id="&lt;Compound Path&gt;" fill-rule="evenodd" class="shp1" d="M141.55 330.58C141.72 341.06 148.32 345.37 156.16 345.37C161.71 345.37 165.15 344.4 167.97 343.17L169.37 348.72C166.65 349.95 161.89 351.45 155.1 351.45C141.99 351.45 134.15 342.73 134.15 329.88C134.15 317.01 141.72 306.97 154.14 306.97C168.14 306.97 171.75 319.13 171.75 326.97C171.75 328.55 171.67 329.7 171.48 330.58L141.55 330.58ZM164.26 325.03C164.35 320.19 162.24 312.52 153.52 312.52C145.6 312.52 142.24 319.66 141.63 325.03L164.26 325.03Z"></path><path id="&lt;Compound Path&gt;" class="shp1" d="M181.33 319.4C181.33 314.9 181.24 311.38 180.98 307.86L187.84 307.86L188.28 314.9L188.46 314.9C190.58 310.94 195.51 306.97 202.55 306.97C208.45 306.97 217.61 310.5 217.61 325.12L217.61 350.48L209.86 350.48L209.86 325.91C209.86 319.04 207.31 313.32 200 313.32C194.98 313.32 191.01 316.93 189.61 321.24C189.25 322.21 189.08 323.53 189.08 324.85L189.08 350.48L181.33 350.48L181.33 319.4Z"></path><path id="&lt;Compound Path&gt;" class="shp1" d="M239.17 297.64L239.17 307.86L250.26 307.86L250.26 313.76L239.17 313.76L239.17 336.74C239.17 342.03 240.67 345.02 244.98 345.02C247.1 345.02 248.34 344.85 249.48 344.5L249.83 350.4C248.34 350.93 245.95 351.45 242.96 351.45C239.35 351.45 236.44 350.22 234.59 348.19C232.48 345.82 231.6 342.03 231.6 337.01L231.6 313.76L224.99 313.76L224.99 307.86L231.6 307.86L231.6 299.93L239.17 297.64Z"></path><path id="&lt;Compound Path&gt;" fill-rule="evenodd" class="shp1" d="M262.75 330.58C262.93 341.06 269.53 345.37 277.37 345.37C282.92 345.37 286.36 344.4 289.18 343.17L290.58 348.72C287.85 349.95 283.1 351.45 276.31 351.45C263.2 351.45 255.36 342.73 255.36 329.88C255.36 317.01 262.93 306.97 275.35 306.97C289.35 306.97 292.96 319.13 292.96 326.97C292.96 328.55 292.88 329.7 292.69 330.58L262.75 330.58ZM285.47 325.03C285.56 320.19 283.45 312.52 274.73 312.52C266.81 312.52 263.45 319.66 262.84 325.03L285.47 325.03Z"></path><path id="&lt;Compound Path&gt;" class="shp1" d="M302.54 321.16C302.54 316.13 302.44 311.82 302.19 307.86L308.97 307.86L309.32 316.31L309.58 316.31C311.52 310.58 316.27 306.97 321.48 306.97C322.27 306.97 322.88 307.06 323.59 307.15L323.59 314.46C322.79 314.29 322.01 314.29 320.94 314.29C315.49 314.29 311.61 318.34 310.55 324.15C310.38 325.2 310.29 326.53 310.29 327.76L310.29 350.48L302.54 350.48L302.54 321.16Z"></path><path id="&lt;Compound Path&gt;" fill-rule="evenodd" class="shp1" d="M331.68 321.77C331.68 316.31 331.5 311.9 331.33 307.86L338.19 307.86L338.64 315.16L338.81 315.16C341.89 309.97 347 306.97 353.96 306.97C364.35 306.97 372.1 315.69 372.1 328.55C372.1 343.88 362.68 351.45 352.64 351.45C347 351.45 342.07 348.98 339.52 344.76L339.34 344.76L339.34 367.92L331.68 367.92L331.68 321.77ZM339.34 333.13C339.34 334.28 339.43 335.33 339.69 336.31C341.1 341.68 345.77 345.37 351.32 345.37C359.51 345.37 364.27 338.68 364.27 328.91C364.27 320.45 359.77 313.14 351.58 313.14C346.3 313.14 341.28 316.84 339.88 322.65C339.61 323.62 339.34 324.77 339.34 325.73L339.34 333.13Z"></path><path id="&lt;Compound Path&gt;" class="shp1" d="M381.76 321.16C381.76 316.13 381.67 311.82 381.41 307.86L388.19 307.86L388.54 316.31L388.8 316.31C390.74 310.58 395.49 306.97 400.69 306.97C401.49 306.97 402.1 307.06 402.81 307.15L402.81 314.46C402.02 314.29 401.23 314.29 400.16 314.29C394.71 314.29 390.83 318.34 389.77 324.15C389.6 325.2 389.51 326.53 389.51 327.76L389.51 350.48L381.76 350.48L381.76 321.16Z"></path><path id="&lt;Compound Path&gt;" class="shp1" d="M419.53 295.88C419.53 298.52 417.68 300.63 414.6 300.63C411.78 300.63 409.94 298.52 409.94 295.88C409.94 293.24 411.87 291.03 414.78 291.03C417.6 291.03 419.53 293.15 419.53 295.88ZM410.91 350.48L410.91 307.86L418.66 307.86L418.66 350.48L410.91 350.48Z"></path><path id="&lt;Compound Path&gt;" class="shp1" d="M430.43 342.64C432.82 344.05 436.87 345.64 440.75 345.64C446.29 345.64 448.94 342.91 448.94 339.3C448.94 335.6 446.73 333.66 441.09 331.55C433.34 328.73 429.73 324.59 429.73 319.48C429.73 312.61 435.37 306.97 444.45 306.97C448.75 306.97 452.55 308.12 454.83 309.62L452.98 315.26C451.31 314.19 448.23 312.7 444.26 312.7C439.69 312.7 437.22 315.34 437.22 318.51C437.22 322.03 439.69 323.62 445.23 325.82C452.55 328.55 456.42 332.25 456.42 338.6C456.42 346.17 450.52 351.45 440.56 351.45C435.9 351.45 431.59 350.22 428.59 348.46L430.43 342.64Z"></path><path id="&lt;Compound Path&gt;" fill-rule="evenodd" class="shp1" d="M470.68 330.58C470.85 341.06 477.46 345.37 485.3 345.37C490.84 345.37 494.28 344.4 497.1 343.17L498.5 348.72C495.78 349.95 491.03 351.45 484.23 351.45C471.12 351.45 463.28 342.73 463.28 329.88C463.28 317.01 470.85 306.97 483.28 306.97C497.28 306.97 500.89 319.13 500.89 326.97C500.89 328.55 500.8 329.7 500.62 330.58L470.68 330.58ZM493.4 325.03C493.48 320.19 491.37 312.52 482.65 312.52C474.73 312.52 471.38 319.66 470.76 325.03L493.4 325.03Z"></path><path id="&lt;Compound Path&gt;" class="shp1" d="M537.74 295.88C537.74 298.52 535.9 300.63 532.82 300.63C529.99 300.63 528.15 298.52 528.15 295.88C528.15 293.24 530.08 291.03 532.99 291.03C535.81 291.03 537.74 293.15 537.74 295.88ZM529.12 350.48L529.12 307.86L536.87 307.86L536.87 350.48L529.12 350.48Z"></path><path id="&lt;Compound Path&gt;" class="shp1" d="M549.73 319.4C549.73 314.9 549.63 311.38 549.37 307.86L556.23 307.86L556.68 314.9L556.85 314.9C558.97 310.94 563.9 306.97 570.95 306.97C576.84 306.97 586 310.5 586 325.12L586 350.48L578.25 350.48L578.25 325.91C578.25 319.04 575.7 313.32 568.39 313.32C563.37 313.32 559.4 316.93 558 321.24C557.65 322.21 557.48 323.53 557.48 324.85L557.48 350.48L549.73 350.48L549.73 319.4Z"></path><path id="&lt;Compound Path&gt;" class="shp1" d="M599.36 350.48L599.36 313.76L593.47 313.76L593.47 307.86L599.36 307.86L599.36 305.83C599.36 299.84 600.78 294.38 604.3 290.95C607.2 288.13 611.08 286.98 614.69 286.98C617.52 286.98 619.8 287.6 621.3 288.21L620.24 294.2C619.1 293.67 617.6 293.24 615.3 293.24C608.7 293.24 607.03 298.96 607.03 305.57L607.03 307.86L617.33 307.86L617.33 313.76L607.03 313.76L607.03 350.48L599.36 350.48Z"></path><path id="&lt;Compound Path&gt;" fill-rule="evenodd" class="shp1" d="M661.71 328.81C661.71 344.58 650.7 351.45 640.48 351.45C629.03 351.45 620.06 343 620.06 329.52C620.06 315.34 629.48 306.97 641.19 306.97C653.44 306.97 661.71 315.87 661.71 328.81ZM627.98 329.26C627.98 338.6 633.26 345.64 640.84 345.64C648.24 345.64 653.78 338.68 653.78 329.08C653.78 321.86 650.17 312.79 641.01 312.79C631.94 312.79 627.98 321.24 627.98 329.26Z"></path><path id="&lt;Compound Path&gt;" class="shp1" d="M671.46 321.16C671.46 316.13 671.37 311.82 671.11 307.86L677.89 307.86L678.24 316.31L678.5 316.31C680.44 310.58 685.19 306.97 690.39 306.97C691.19 306.97 691.8 307.06 692.51 307.15L692.51 314.46C691.71 314.29 690.93 314.29 689.86 314.29C684.41 314.29 680.53 318.34 679.47 324.15C679.3 325.2 679.21 326.53 679.21 327.76L679.21 350.48L671.46 350.48L671.46 321.16Z"></path><path id="&lt;Compound Path&gt;" class="shp1" d="M700.61 319.4C700.61 314.9 700.42 311.38 700.25 307.86L707.03 307.86L707.38 314.81L707.64 314.81C710.02 310.76 713.99 306.97 721.13 306.97C726.85 306.97 731.25 310.5 733.1 315.52L733.27 315.52C734.6 313.05 736.35 311.29 738.12 309.97C740.68 308.03 743.4 306.97 747.46 306.97C753.18 306.97 761.54 310.68 761.54 325.47L761.54 350.48L753.98 350.48L753.98 326.44C753.98 318.16 750.89 313.32 744.73 313.32C740.24 313.32 736.88 316.58 735.48 320.27C735.13 321.42 734.86 322.74 734.86 324.15L734.86 350.48L727.29 350.48L727.29 324.94C727.29 318.16 724.29 313.32 718.39 313.32C713.63 313.32 710.02 317.19 708.8 321.07C708.35 322.12 708.17 323.53 708.17 324.85L708.17 350.48L700.61 350.48L700.61 319.4Z"></path><path id="&lt;Compound Path&gt;" fill-rule="evenodd" class="shp1" d="M803.96 340.27C803.96 343.97 804.13 347.58 804.57 350.48L797.62 350.48L797 345.11L796.74 345.11C794.36 348.46 789.77 351.45 783.7 351.45C775.08 351.45 770.67 345.37 770.67 339.21C770.67 328.91 779.83 323.27 796.3 323.36L796.3 322.48C796.3 319.04 795.33 312.61 786.61 312.7C782.55 312.7 778.42 313.84 775.42 315.87L773.66 310.68C777.19 308.47 782.38 306.97 787.75 306.97C800.79 306.97 803.96 315.87 803.96 324.33L803.96 340.27ZM796.47 328.73C788.02 328.55 778.42 330.05 778.42 338.33C778.42 343.44 781.77 345.72 785.64 345.72C791.27 345.72 794.88 342.21 796.12 338.6C796.38 337.71 796.47 336.83 796.47 336.13L796.47 328.73Z"></path><path id="&lt;Compound Path&gt;" class="shp1" d="M825.43 297.64L825.43 307.86L836.51 307.86L836.51 313.76L825.43 313.76L825.43 336.74C825.43 342.03 826.92 345.02 831.23 345.02C833.35 345.02 834.59 344.85 835.73 344.5L836.08 350.4C834.59 350.93 832.2 351.45 829.21 351.45C825.6 351.45 822.69 350.22 820.84 348.19C818.73 345.82 817.85 342.03 817.85 337.01L817.85 313.76L811.24 313.76L811.24 307.86L817.85 307.86L817.85 299.93L825.43 297.64Z"></path><path id="&lt;Compound Path&gt;" class="shp1" d="M853.84 295.88C853.84 298.52 852 300.63 848.92 300.63C846.09 300.63 844.25 298.52 844.25 295.88C844.25 293.24 846.18 291.03 849.09 291.03C851.91 291.03 853.84 293.15 853.84 295.88ZM845.22 350.48L845.22 307.86L852.97 307.86L852.97 350.48L845.22 350.48Z"></path><path id="&lt;Compound Path&gt;" fill-rule="evenodd" class="shp1" d="M904.4 328.81C904.4 344.58 893.39 351.45 883.17 351.45C871.72 351.45 862.75 343 862.75 329.52C862.75 315.34 872.17 306.97 883.88 306.97C896.12 306.97 904.4 315.87 904.4 328.81ZM870.67 329.26C870.67 338.6 875.95 345.64 883.52 345.64C890.93 345.64 896.47 338.68 896.47 329.08C896.47 321.86 892.86 312.79 883.7 312.79C874.63 312.79 870.67 321.24 870.67 329.26Z"></path><path id="&lt;Compound Path&gt;" class="shp1" d="M914.15 319.4C914.15 314.9 914.05 311.38 913.8 307.86L920.66 307.86L921.1 314.9L921.27 314.9C923.4 310.94 928.32 306.97 935.37 306.97C941.27 306.97 950.43 310.5 950.43 325.12L950.43 350.48L942.68 350.48L942.68 325.91C942.68 319.04 940.13 313.32 932.82 313.32C927.8 313.32 923.83 316.93 922.43 321.24C922.07 322.21 921.9 323.53 921.9 324.85L921.9 350.48L914.15 350.48L914.15 319.4Z"></path><path id="&lt;Compound Path&gt;" class="shp1" d="M990.29 295.88C990.29 298.52 988.45 300.63 985.37 300.63C982.54 300.63 980.7 298.52 980.7 295.88C980.7 293.24 982.63 291.03 985.54 291.03C988.36 291.03 990.29 293.15 990.29 295.88ZM981.67 350.48L981.67 307.86L989.42 307.86L989.42 350.48L981.67 350.48Z"></path><path id="&lt;Compound Path&gt;" class="shp1" d="M1002.27 319.4C1002.27 314.9 1002.17 311.38 1001.91 307.86L1008.77 307.86L1009.22 314.9L1009.39 314.9C1011.51 310.94 1016.44 306.97 1023.49 306.97C1029.38 306.97 1038.54 310.5 1038.54 325.12L1038.54 350.48L1030.79 350.48L1030.79 325.91C1030.79 319.04 1028.24 313.32 1020.93 313.32C1015.91 313.32 1011.94 316.93 1010.54 321.24C1010.19 322.21 1010.01 323.53 1010.01 324.85L1010.01 350.48L1002.27 350.48L1002.27 319.4Z"></path><path id="&lt;Compound Path&gt;" class="shp1" d="M1060.09 297.64L1060.09 307.86L1071.18 307.86L1071.18 313.76L1060.09 313.76L1060.09 336.74C1060.09 342.03 1061.59 345.02 1065.9 345.02C1068.02 345.02 1069.26 344.85 1070.4 344.5L1070.75 350.4C1069.26 350.93 1066.87 351.45 1063.88 351.45C1060.27 351.45 1057.36 350.22 1055.51 348.19C1053.4 345.82 1052.52 342.03 1052.52 337.01L1052.52 313.76L1045.91 313.76L1045.91 307.86L1052.52 307.86L1052.52 299.93L1060.09 297.64Z"></path><path id="&lt;Compound Path&gt;" fill-rule="evenodd" class="shp1" d="M1083.69 330.58C1083.86 341.06 1090.46 345.37 1098.3 345.37C1103.85 345.37 1107.29 344.4 1110.11 343.17L1111.51 348.72C1108.79 349.95 1104.03 351.45 1097.24 351.45C1084.13 351.45 1076.29 342.73 1076.29 329.88C1076.29 317.01 1083.86 306.97 1096.28 306.97C1110.29 306.97 1113.9 319.13 1113.9 326.97C1113.9 328.55 1113.81 329.7 1113.63 330.58L1083.69 330.58ZM1106.4 325.03C1106.49 320.19 1104.38 312.52 1095.66 312.52C1087.74 312.52 1084.38 319.66 1083.77 325.03L1106.4 325.03Z"></path><path id="&lt;Compound Path&gt;" fill-rule="evenodd" class="shp1" d="M1159.94 344.23C1159.94 354.09 1157.91 359.99 1153.86 363.78C1149.63 367.57 1143.64 368.89 1138.26 368.89C1133.15 368.89 1127.51 367.66 1124.09 365.37L1126.03 359.38C1128.84 361.23 1133.25 362.81 1138.53 362.81C1146.45 362.81 1152.27 358.67 1152.27 347.84L1152.27 343.17L1152.09 343.17C1149.8 347.14 1145.14 350.31 1138.53 350.31C1127.96 350.31 1120.39 341.32 1120.39 329.52C1120.39 315.08 1129.81 306.97 1139.67 306.97C1147.08 306.97 1151.03 310.76 1152.97 314.29L1153.14 314.29L1153.41 307.86L1160.28 307.86C1160.02 310.85 1159.94 314.37 1159.94 319.48L1159.94 344.23ZM1152.19 324.68C1152.19 323.36 1152.09 322.21 1151.74 321.24C1150.33 316.66 1146.64 312.97 1140.91 312.97C1133.51 312.97 1128.23 319.22 1128.23 329.08C1128.23 337.45 1132.54 344.4 1140.82 344.4C1145.67 344.4 1149.98 341.41 1151.56 336.48C1152 335.16 1152.19 333.66 1152.19 332.34L1152.19 324.68Z"></path><path id="&lt;Compound Path&gt;" class="shp1" d="M1172.15 321.16C1172.15 316.13 1172.06 311.82 1171.8 307.86L1178.58 307.86L1178.93 316.31L1179.19 316.31C1181.13 310.58 1185.88 306.97 1191.09 306.97C1191.88 306.97 1192.49 307.06 1193.2 307.15L1193.2 314.46C1192.41 314.29 1191.62 314.29 1190.55 314.29C1185.1 314.29 1181.22 318.34 1180.16 324.15C1179.99 325.2 1179.9 326.53 1179.9 327.76L1179.9 350.48L1172.15 350.48L1172.15 321.16Z"></path><path id="&lt;Compound Path&gt;" fill-rule="evenodd" class="shp1" d="M1230.44 340.27C1230.44 343.97 1230.61 347.58 1231.05 350.48L1224.1 350.48L1223.48 345.11L1223.22 345.11C1220.83 348.46 1216.25 351.45 1210.18 351.45C1201.55 351.45 1197.15 345.37 1197.15 339.21C1197.15 328.91 1206.31 323.27 1222.77 323.36L1222.77 322.48C1222.77 319.04 1221.81 312.61 1213.09 312.7C1209.03 312.7 1204.9 313.84 1201.9 315.87L1200.14 310.68C1203.67 308.47 1208.86 306.97 1214.23 306.97C1227.27 306.97 1230.44 315.87 1230.44 324.33L1230.44 340.27ZM1222.95 328.73C1214.5 328.55 1204.9 330.05 1204.9 338.33C1204.9 343.44 1208.25 345.72 1212.12 345.72C1217.75 345.72 1221.36 342.21 1222.6 338.6C1222.86 337.71 1222.95 336.83 1222.95 336.13L1222.95 328.73Z"></path><path id="&lt;Compound Path&gt;" class="shp1" d="M1251.9 297.64L1251.9 307.86L1262.99 307.86L1262.99 313.76L1251.9 313.76L1251.9 336.74C1251.9 342.03 1253.4 345.02 1257.71 345.02C1259.83 345.02 1261.07 344.85 1262.21 344.5L1262.56 350.4C1261.07 350.93 1258.68 351.45 1255.69 351.45C1252.08 351.45 1249.17 350.22 1247.32 348.19C1245.21 345.82 1244.33 342.03 1244.33 337.01L1244.33 313.76L1237.72 313.76L1237.72 307.86L1244.33 307.86L1244.33 299.93L1251.9 297.64Z"></path><path id="&lt;Compound Path&gt;" class="shp1" d="M1280.33 295.88C1280.33 298.52 1278.49 300.63 1275.41 300.63C1272.59 300.63 1270.74 298.52 1270.74 295.88C1270.74 293.24 1272.67 291.03 1275.58 291.03C1278.41 291.03 1280.33 293.15 1280.33 295.88ZM1271.71 350.48L1271.71 307.86L1279.46 307.86L1279.46 350.48L1271.71 350.48Z"></path><path id="&lt;Compound Path&gt;" fill-rule="evenodd" class="shp1" d="M1330.88 328.81C1330.88 344.58 1319.87 351.45 1309.65 351.45C1298.2 351.45 1289.23 343 1289.23 329.52C1289.23 315.34 1298.64 306.97 1310.36 306.97C1322.6 306.97 1330.88 315.87 1330.88 328.81ZM1297.15 329.26C1297.15 338.6 1302.43 345.64 1310 345.64C1317.41 345.64 1322.95 338.68 1322.95 329.08C1322.95 321.86 1319.34 312.79 1310.18 312.79C1301.11 312.79 1297.15 321.24 1297.15 329.26Z"></path><path id="&lt;Compound Path&gt;" class="shp1" d="M1340.63 319.4C1340.63 314.9 1340.53 311.38 1340.28 307.86L1347.14 307.86L1347.58 314.9L1347.75 314.9C1349.88 310.94 1354.8 306.97 1361.85 306.97C1367.75 306.97 1376.91 310.5 1376.91 325.12L1376.91 350.48L1369.16 350.48L1369.16 325.91C1369.16 319.04 1366.6 313.32 1359.3 313.32C1354.28 313.32 1350.31 316.93 1348.91 321.24C1348.55 322.21 1348.38 323.53 1348.38 324.85L1348.38 350.48L1340.63 350.48L1340.63 319.4Z"></path></g><g id="&lt;Group&gt;"><path id="&lt;Compound Path&gt;" class="shp0" d="M43.56 128.08C43.56 133.36 39.86 137.59 33.7 137.59C28.06 137.59 24.35 133.36 24.35 128.08C24.35 122.8 28.23 118.39 34.04 118.39C39.68 118.39 43.56 122.62 43.56 128.08ZM26.29 237.29L26.29 152.04L41.79 152.04L41.79 237.29L26.29 237.29Z"></path><path id="&lt;Compound Path&gt;" class="shp0" d="M67.49 175.11C67.49 166.13 67.32 159.08 66.79 152.04L80.53 152.04L81.41 166.13L81.76 166.13C85.99 158.2 95.85 150.27 109.95 150.27C121.75 150.27 140.07 157.32 140.07 186.56L140.07 237.29L124.56 237.29L124.56 188.15C124.56 174.41 119.46 162.96 104.84 162.96C94.79 162.96 86.87 170.18 84.05 178.81C83.35 180.75 82.99 183.39 82.99 186.03L82.99 237.29L67.49 237.29L67.49 175.11Z"></path><path id="&lt;Compound Path&gt;" class="shp0" d="M183.18 131.6L183.18 152.04L205.37 152.04L205.37 163.84L183.18 163.84L183.18 209.82C183.18 220.38 186.16 226.37 194.79 226.37C199.02 226.37 201.49 226.02 203.78 225.31L204.48 237.11C201.49 238.17 196.73 239.23 190.74 239.23C183.52 239.23 177.71 236.77 174.01 232.71C169.78 227.96 168.02 220.38 168.02 210.34L168.02 163.84L154.81 163.84L154.81 152.04L168.02 152.04L168.02 136.18L183.18 131.6Z"></path><path id="&lt;Compound Path&gt;" fill-rule="evenodd" class="shp0" d="M230.35 197.49C230.7 218.44 243.9 227.08 259.59 227.08C270.69 227.08 277.55 225.14 283.19 222.67L286.01 233.77C280.55 236.24 271.03 239.23 257.47 239.23C231.23 239.23 215.55 221.79 215.55 196.07C215.55 170.36 230.7 150.27 255.53 150.27C283.55 150.27 290.77 174.58 290.77 190.26C290.77 193.43 290.58 195.72 290.24 197.49L230.35 197.49ZM275.8 186.38C275.97 176.69 271.74 161.38 254.31 161.38C238.45 161.38 231.76 175.64 230.52 186.38L275.8 186.38Z"></path><path id="&lt;Compound Path&gt;" fill-rule="evenodd" class="shp0" d="M382.83 224.78C382.83 244.51 378.78 256.32 370.69 263.89C362.23 271.46 350.25 274.11 339.51 274.11C329.29 274.11 318.02 271.64 311.14 267.06L315.02 255.08C320.66 258.78 329.46 261.95 340.03 261.95C355.89 261.95 367.51 253.68 367.51 232.01L367.51 222.67L367.16 222.67C362.58 230.6 353.25 236.94 340.03 236.94C318.9 236.94 303.75 218.98 303.75 195.37C303.75 166.48 322.6 150.27 342.32 150.27C357.12 150.27 365.05 157.85 368.92 164.89L369.28 164.89L369.8 152.04L383.55 152.04C383.02 158.03 382.83 165.07 382.83 175.29L382.83 224.78ZM367.33 185.68C367.33 183.04 367.16 180.75 366.45 178.81C363.64 169.65 356.23 162.25 344.79 162.25C329.99 162.25 319.43 174.76 319.43 194.49C319.43 211.22 328.06 225.14 344.62 225.14C354.31 225.14 362.94 219.15 366.11 209.29C366.98 206.64 367.33 203.65 367.33 201L367.33 185.68Z"></path><path id="&lt;Compound Path&gt;" class="shp0" d="M407.27 178.63C407.27 168.6 407.1 159.96 406.57 152.04L420.13 152.04L420.84 168.95L421.37 168.95C425.24 157.5 434.76 150.27 445.14 150.27C446.73 150.27 447.97 150.45 449.37 150.63L449.37 165.25C447.79 164.89 446.2 164.89 444.09 164.89C433.17 164.89 425.42 173 423.3 184.62C422.95 186.74 422.77 189.38 422.77 191.85L422.77 237.29L407.27 237.29L407.27 178.63Z"></path><path id="&lt;Compound Path&gt;" fill-rule="evenodd" class="shp0" d="M523.85 216.86C523.85 224.26 524.21 231.48 525.08 237.29L511.16 237.29L509.94 226.55L509.41 226.55C504.66 233.24 495.49 239.23 483.34 239.23C466.07 239.23 457.27 227.08 457.27 214.75C457.27 194.14 475.59 182.86 508.53 183.04L508.53 181.28C508.53 174.41 506.58 161.55 489.15 161.72C481.04 161.72 472.76 164.01 466.78 168.07L463.26 157.67C470.3 153.27 480.7 150.27 491.44 150.27C517.51 150.27 523.85 168.07 523.85 184.98L523.85 216.86ZM508.88 193.78C491.97 193.43 472.76 196.43 472.76 212.98C472.76 223.2 479.46 227.78 487.21 227.78C498.48 227.78 505.71 220.73 508.17 213.51C508.7 211.75 508.88 209.99 508.88 208.58L508.88 193.78Z"></path><path id="&lt;Compound Path&gt;" class="shp0" d="M566.8 131.6L566.8 152.04L588.99 152.04L588.99 163.84L566.8 163.84L566.8 209.82C566.8 220.38 569.78 226.37 578.41 226.37C582.64 226.37 585.11 226.02 587.4 225.31L588.1 237.11C585.11 238.17 580.35 239.23 574.36 239.23C567.14 239.23 561.33 236.77 557.64 232.71C553.4 227.96 551.64 220.38 551.64 210.34L551.64 163.84L538.43 163.84L538.43 152.04L551.64 152.04L551.64 136.18L566.8 131.6Z"></path><path id="&lt;Compound Path&gt;" class="shp0" d="M623.66 128.08C623.66 133.36 619.96 137.59 613.79 137.59C608.16 137.59 604.45 133.36 604.45 128.08C604.45 122.8 608.33 118.39 614.14 118.39C619.78 118.39 623.66 122.62 623.66 128.08ZM606.39 237.29L606.39 152.04L621.89 152.04L621.89 237.29L606.39 237.29Z"></path><path id="&lt;Compound Path&gt;" fill-rule="evenodd" class="shp0" d="M724.74 193.96C724.74 225.49 702.72 239.23 682.28 239.23C659.38 239.23 641.41 222.32 641.41 195.37C641.41 167.01 660.26 150.27 683.7 150.27C708.17 150.27 724.74 168.07 724.74 193.96ZM657.27 194.84C657.27 213.51 667.84 227.6 682.98 227.6C697.78 227.6 708.88 213.69 708.88 194.49C708.88 180.05 701.66 161.9 683.34 161.9C665.19 161.9 657.27 178.81 657.27 194.84Z"></path><path id="&lt;Compound Path&gt;" class="shp0" d="M744.24 175.11C744.24 166.13 744.07 159.08 743.54 152.04L757.28 152.04L758.15 166.13L758.51 166.13C762.73 158.2 772.59 150.27 786.69 150.27C798.49 150.27 816.82 157.32 816.82 186.56L816.82 237.29L801.31 237.29L801.31 188.15C801.31 174.41 796.2 162.96 781.58 162.96C771.54 162.96 763.62 170.18 760.79 178.81C760.09 180.75 759.74 183.39 759.74 186.03L759.74 237.29L744.24 237.29L744.24 175.11Z"></path><path id="&lt;Compound Path&gt;" class="shp0" d="M877.88 184.09L877.88 195.37L834.37 195.37L834.37 184.09L877.88 184.09Z"></path><path id="&lt;Compound Path&gt;" class="shp0" d="M897.57 237.29L897.57 163.84L885.77 163.84L885.77 152.04L897.57 152.04L897.57 147.98C897.57 136.01 900.4 125.09 907.44 118.21C913.26 112.58 921.01 110.29 928.23 110.29C933.86 110.29 938.44 111.52 941.44 112.76L939.33 124.74C937.03 123.68 934.03 122.8 929.45 122.8C916.25 122.8 912.9 134.25 912.9 147.45L912.9 152.04L933.51 152.04L933.51 163.84L912.9 163.84L912.9 237.29L897.57 237.29Z"></path><path id="&lt;Compound Path&gt;" fill-rule="evenodd" class="shp0" d="M1007.29 216.86C1007.29 224.26 1007.64 231.48 1008.52 237.29L994.6 237.29L993.37 226.55L992.85 226.55C988.09 233.24 978.93 239.23 966.77 239.23C949.51 239.23 940.7 227.08 940.7 214.75C940.7 194.14 959.03 182.86 991.96 183.04L991.96 181.28C991.96 174.41 990.02 161.55 972.58 161.72C964.48 161.72 956.2 164.01 950.22 168.07L946.7 157.67C953.73 153.27 964.13 150.27 974.88 150.27C1000.95 150.27 1007.29 168.07 1007.29 184.98L1007.29 216.86ZM992.32 193.78C975.41 193.43 956.2 196.43 956.2 212.98C956.2 223.2 962.89 227.78 970.64 227.78C981.92 227.78 989.15 220.73 991.61 213.51C992.13 211.75 992.32 209.99 992.32 208.58L992.32 193.78Z"></path><path id="&lt;Compound Path&gt;" class="shp0" d="M1093.03 234.3C1088.98 236.24 1079.99 239.23 1068.54 239.23C1042.83 239.23 1026.09 221.79 1026.09 195.72C1026.09 169.47 1044.06 150.27 1071.88 150.27C1081.04 150.27 1089.15 152.56 1093.37 154.85L1089.85 166.66C1086.15 164.72 1080.35 162.61 1071.88 162.61C1052.33 162.61 1041.77 177.23 1041.77 194.84C1041.77 214.57 1054.45 226.73 1071.36 226.73C1080.17 226.73 1085.98 224.61 1090.39 222.67L1093.03 234.3Z"></path><path id="&lt;Compound Path&gt;" class="shp0" d="M1132.1 131.6L1132.1 152.04L1154.29 152.04L1154.29 163.84L1132.1 163.84L1132.1 209.82C1132.1 220.38 1135.08 226.37 1143.71 226.37C1147.94 226.37 1150.41 226.02 1152.7 225.31L1153.4 237.11C1150.41 238.17 1145.65 239.23 1139.66 239.23C1132.44 239.23 1126.63 236.77 1122.93 232.71C1118.7 227.96 1116.94 220.38 1116.94 210.34L1116.94 163.84L1103.73 163.84L1103.73 152.04L1116.94 152.04L1116.94 136.18L1132.1 131.6Z"></path><path id="&lt;Compound Path&gt;" fill-rule="evenodd" class="shp0" d="M1247.79 193.96C1247.79 225.49 1225.77 239.23 1205.34 239.23C1182.43 239.23 1164.47 222.32 1164.47 195.37C1164.47 167.01 1183.32 150.27 1206.75 150.27C1231.22 150.27 1247.79 168.07 1247.79 193.96ZM1180.32 194.84C1180.32 213.51 1190.9 227.6 1206.04 227.6C1220.83 227.6 1231.94 213.69 1231.94 194.49C1231.94 180.05 1224.72 161.9 1206.39 161.9C1188.24 161.9 1180.32 178.81 1180.32 194.84Z"></path><path id="&lt;Compound Path&gt;" class="shp0" d="M1267.28 178.63C1267.28 168.6 1267.11 159.96 1266.58 152.04L1280.14 152.04L1280.85 168.95L1281.38 168.95C1285.25 157.5 1294.76 150.27 1305.15 150.27C1306.74 150.27 1307.98 150.45 1309.38 150.63L1309.38 165.25C1307.79 164.89 1306.21 164.89 1304.1 164.89C1293.18 164.89 1285.43 173 1283.31 184.62C1282.96 186.74 1282.78 189.38 1282.78 191.85L1282.78 237.29L1267.28 237.29L1267.28 178.63Z"></path><path id="&lt;Compound Path&gt;" class="shp0" d="M1334.89 152.04L1353.38 202.42C1355.49 208.05 1357.6 214.75 1359.02 219.85L1359.37 219.85C1360.96 214.75 1362.71 208.23 1364.84 202.07L1381.75 152.04L1398.12 152.04L1374.87 212.81C1363.77 242.05 1356.2 256.84 1345.63 266.18C1337.88 272.7 1330.48 275.34 1326.61 276.04L1322.73 263.19C1326.61 261.95 1331.72 259.49 1336.3 255.61C1340.52 252.26 1345.63 246.28 1349.33 238.35C1350.04 236.77 1350.57 235.53 1350.57 234.65C1350.57 233.77 1350.21 232.53 1349.33 230.6L1317.97 152.04L1334.89 152.04Z"></path></g></g></g></svg>